<svg width="32" height="32" viewBox="0 0 32 32" fill="none" xmlns="http://www.w3.org/2000/svg">
<path d="M29.3337 22.6667C29.3337 23.3739 29.0527 24.0522 28.5526 24.5523C28.0525 25.0524 27.3742 25.3333 26.667 25.3333H9.10433C8.39714 25.3335 7.71897 25.6145 7.21899 26.1147L4.28299 29.0507C4.1506 29.183 3.98193 29.2732 3.79831 29.3097C3.61469 29.3462 3.42437 29.3275 3.2514 29.2558C3.07844 29.1842 2.9306 29.0629 2.82657 28.9072C2.72255 28.7516 2.66702 28.5685 2.66699 28.3813V6.66667C2.66699 5.95942 2.94794 5.28115 3.44804 4.78105C3.94814 4.28095 4.62641 4 5.33366 4H26.667C27.3742 4 28.0525 4.28095 28.5526 4.78105C29.0527 5.28115 29.3337 5.95942 29.3337 6.66667V22.6667Z" stroke="white" stroke-width="2.66667" stroke-linecap="round" stroke-linejoin="round"/>
</svg>
