<svg width="16" height="16" viewBox="0 0 16 16" fill="none" xmlns="http://www.w3.org/2000/svg">
<path d="M1.37468 8.23029C1.31912 8.08061 1.31912 7.91596 1.37468 7.76629C1.91581 6.45419 2.83435 5.33231 4.01386 4.54289C5.19336 3.75346 6.58071 3.33203 8.00001 3.33203C9.41932 3.33203 10.8067 3.75346 11.9862 4.54289C13.1657 5.33231 14.0842 6.45419 14.6253 7.76629C14.6809 7.91596 14.6809 8.08061 14.6253 8.23029C14.0842 9.54238 13.1657 10.6643 11.9862 11.4537C10.8067 12.2431 9.41932 12.6645 8.00001 12.6645C6.58071 12.6645 5.19336 12.2431 4.01386 11.4537C2.83435 10.6643 1.91581 9.54238 1.37468 8.23029Z" stroke="#364153" stroke-width="1.33333" stroke-linecap="round" stroke-linejoin="round"/>
<path d="M8 10C9.10457 10 10 9.10457 10 8C10 6.89543 9.10457 6 8 6C6.89543 6 6 6.89543 6 8C6 9.10457 6.89543 10 8 10Z" stroke="#364153" stroke-width="1.33333" stroke-linecap="round" stroke-linejoin="round"/>
</svg>
