<svg width="32" height="32" viewBox="0 0 32 32" fill="none" xmlns="http://www.w3.org/2000/svg">
<path d="M25.3333 14.668H6.66667C5.19391 14.668 4 15.8619 4 17.3346V26.668C4 28.1407 5.19391 29.3346 6.66667 29.3346H25.3333C26.8061 29.3346 28 28.1407 28 26.668V17.3346C28 15.8619 26.8061 14.668 25.3333 14.668Z" stroke="white" stroke-width="2.66667" stroke-linecap="round" stroke-linejoin="round"/>
<path d="M9.33398 14.668V9.33464C9.33398 7.56653 10.0364 5.87083 11.2866 4.62059C12.5368 3.37035 14.2325 2.66797 16.0007 2.66797C17.7688 2.66797 19.4645 3.37035 20.7147 4.62059C21.9649 5.87083 22.6673 7.56653 22.6673 9.33464V14.668" stroke="white" stroke-width="2.66667" stroke-linecap="round" stroke-linejoin="round"/>
</svg>
