<svg xmlns="http://www.w3.org/2000/svg" width="32" height="32" viewBox="0 0 32 32" fill="none"><path d="M21.3327 28V25.3333C21.3327 23.9188 20.7708 22.5623 19.7706 21.5621C18.7704 20.5619 17.4138 20 15.9993 20H7.99935C6.58486 20 5.22831 20.5619 4.22811 21.5621C3.22792 22.5623 2.66602 23.9188 2.66602 25.3333V28" stroke="currentColor" stroke-width="2.66667" stroke-linecap="round" stroke-linejoin="round"/><path d="M21.334 4.17188C22.4777 4.46837 23.4905 5.13623 24.2136 6.07063C24.9366 7.00502 25.3289 8.15306 25.3289 9.33454C25.3289 10.516 24.9366 11.6641 24.2136 12.5985C23.4905 13.5329 22.4777 14.2007 21.334 14.4972" stroke="currentColor" stroke-width="2.66667" stroke-linecap="round" stroke-linejoin="round"/><path d="M29.334 27.9985V25.3319C29.3331 24.1502 28.9398 23.0022 28.2158 22.0683C27.4918 21.1344 26.4782 20.4673 25.334 20.1719" stroke="currentColor" stroke-width="2.66667" stroke-linecap="round" stroke-linejoin="round"/><path d="M11.9993 14.6667C14.9449 14.6667 17.3327 12.2789 17.3327 9.33333C17.3327 6.38781 14.9449 4 11.9993 4C9.05383 4 6.66602 6.38781 6.66602 9.33333C6.66602 12.2789 9.05383 14.6667 11.9993 14.6667Z" stroke="currentColor" stroke-width="2.66667" stroke-linecap="round" stroke-linejoin="round"/><style xmlns="" class="darkreader darkreader--fallback">html, body, body :not(iframe) {
    background-color: var(--darkreader-background-ffffff, #1c1c1a) !important;
    border-color: var(--darkreader-border-404040, #837764) !important;
    color: var(--darkreader-text-000000, #fff9de) !important;
}
div[style*=&quot;background-color: rgb(135, 135, 135)&quot;] {
    background-color: #878787 !important;
}</style></svg>